HIERARCHY
ROOT Hips
{
    OFFSET 0.000000 0.000000 0.000000
    CHANNELS 6 Xposition Yposition Zposition Zrotation Xrotation Yrotation
    JOINT Spine
    {
        OFFSET -0.000000 7.472806 0.000000
        CHANNELS 3 Zrotation Xrotation Yrotation
        JOINT Spine1
        {
            OFFSET -0.000000 20.861324 0.000000
            CHANNELS 3 Zrotation Xrotation Yrotation
            JOINT Neck
            {
                OFFSET -0.000000 20.775652 1.888696
                CHANNELS 3 Zrotation Xrotation Yrotation
                JOINT Head
                {
                    OFFSET -0.000000 12.758449 -1.822636
                    CHANNELS 3 Zrotation Xrotation Yrotation
                    End Site
                    {
                        OFFSET -0.000000 22.782944 0.000000
                    }
                }
            }
            JOINT LeftShoulder
            {
                OFFSET 3.666378 18.154961 -0.070414
                CHANNELS 3 Zrotation Xrotation Yrotation
                JOINT LeftArm
                {
                    OFFSET 12.961472 0.000000 0.000000
                    CHANNELS 3 Zrotation Xrotation Yrotation
                    JOINT LeftForeArm
                    {
                        OFFSET 24.623642 0.000000 0.000000
                        CHANNELS 3 Zrotation Xrotation Yrotation
                        JOINT LeftHand
                        {
                            OFFSET 23.136553 0.000000 0.000000
                            CHANNELS 3 Zrotation Xrotation Yrotation
                            End Site
                            {
                                OFFSET 13.669766 0.000000 0.000000
                            }
                        }
                    }
                }
            }
            JOINT RightShoulder
            {
                OFFSET -3.623027 18.154961 -0.070414
                CHANNELS 3 Zrotation Xrotation Yrotation
                JOINT RightArm
                {
                    OFFSET -12.961472 0.000000 0.000000
                    CHANNELS 3 Zrotation Xrotation Yrotation
                    JOINT RightForeArm
                    {
                        OFFSET -24.623642 0.000000 0.000000
                        CHANNELS 3 Zrotation Xrotation Yrotation
                        JOINT RightHand
                        {
                            OFFSET -23.136553 0.000000 0.000000
                            CHANNELS 3 Zrotation Xrotation Yrotation
                            End Site
                            {
                                OFFSET -13.669766 0.000000 0.000000
                            }
                        }
                    }
                }
            }
        }
    }
    JOINT LeftUpLeg
    {
        OFFSET 9.113177 0.000000 0.000000
        CHANNELS 3 Zrotation Xrotation Yrotation
        JOINT LeftLeg
        {
            OFFSET -0.000000 -45.736031 0.000000
            CHANNELS 3 Zrotation Xrotation Yrotation
            JOINT LeftFoot
            {
                OFFSET -0.000000 -34.703285 0.000000
                CHANNELS 3 Zrotation Xrotation Yrotation
                JOINT LeftToeBase
                {
                    OFFSET -0.000000 -5.923565 13.669766
                    CHANNELS 3 Zrotation Xrotation Yrotation
                    End Site
                    {
                        OFFSET -0.000000 0.000000 3.645271
                    }
                }
            }
        }
    }
    JOINT RightUpLeg
    {
        OFFSET -9.113177 0.000000 0.000000
        CHANNELS 3 Zrotation Xrotation Yrotation
        JOINT RightLeg
        {
            OFFSET -0.000000 -45.736031 0.000000
            CHANNELS 3 Zrotation Xrotation Yrotation
            JOINT RightFoot
            {
                OFFSET -0.000000 -34.703285 0.000000
                CHANNELS 3 Zrotation Xrotation Yrotation
                JOINT RightToeBase
                {
                    OFFSET -0.000000 -5.923565 13.669766
                    CHANNELS 3 Zrotation Xrotation Yrotation
                    End Site
                    {
                        OFFSET -0.000000 0.000000 3.645271
                    }
                }
            }
        }
    }
}
MOTION
Frames:    9
Frame Time:    0.008333
1.102897    87.280914    12.059137    -1.939098    -0.296369    0.478668    2.685933    1.896802    1.658496    -8.704311    -9.412000    0.985062    15.694694    17.350920    -8.265368    -7.477382    4.259223    -9.224073    10.754180    15.461722    -14.901063    -59.303642    51.942581    -17.242842    0.253484    -10.991315    -20.785109    3.571045    -10.645457    9.769689    -41.023552    -29.663542    -12.535901    -4.302912    -6.342184    52.521400    5.781363    -37.336445    15.762003    -43.453308    -0.025325    0.175118    0.505854    8.342129    -1.967176    -6.545194    -6.833127    -0.509449    7.068347    -1.783687    2.947872    0.000000    0.000000    0.000000    -2.332101    8.272616    2.737743    6.054613    -4.787688    2.728034    -1.236388    -2.113510    -8.590464    0.000000    0.000000    0.000000    
1.101803    87.281410    12.056527    -1.938868    -0.297302    0.479762    2.685835    1.898210    1.661910    -8.702900    -9.415745    0.988334    15.667204    17.355558    -8.258124    -7.437965    4.262355    -9.211795    10.750117    15.455000    -14.902610    -59.331581    51.934998    -17.213058    0.258523    -10.990230    -20.795456    3.573970    -10.643159    9.770438    -41.044743    -29.758825    -12.483370    -4.253987    -6.315373    52.414505    5.719014    -37.160381    15.724268    -43.427269    0.081766    0.255006    0.508246    8.341783    -1.969973    -6.547094    -6.835295    -0.506780    6.999331    -1.764551    2.952930    0.000000    0.000000    0.000000    -2.332031    8.275520    2.768751    6.051951    -4.800521    2.686292    -1.233374    -2.106213    -8.577035    0.000000    0.000000    0.000000    
1.096421    87.278893    12.061464    -1.952529    -0.279258    0.428298    2.694418    1.858310    1.695325    -8.697320    -9.397414    1.022840    15.648493    17.356169    -8.255980    -7.407961    4.257863    -9.206812    10.747015    15.461815    -14.901334    -59.337791    51.914970    -17.203676    0.263673    -10.976215    -20.807741    3.575607    -10.627839    9.777095    -41.044075    -29.755894    -12.487793    -4.244656    -6.312761    52.411388    5.687679    -37.071579    15.705359    -43.424984    0.014264    0.195442    0.520110    8.341257    -1.920737    -6.552225    -6.853620    -0.509939    7.007199    -1.776312    2.958576    0.000000    0.000000    0.000000    -2.316135    8.255285    2.811338    6.039832    -4.806583    2.667879    -1.236188    -2.102696    -8.552218    0.000000    0.000000    0.000000    
1.099526    87.283447    12.050889    -1.933791    -0.299925    0.493201    2.686856    1.904854    1.665406    -8.718246    -9.420135    0.990390    15.643044    17.355412    -8.255834    -7.393165    4.250750    -9.205720    10.748219    15.466866    -14.896316    -59.333839    51.902359    -17.210163    0.259466    -10.972707    -20.810781    3.593898    -10.623924    9.764975    -41.041393    -29.759188    -12.490979    -4.287657    -6.361761    52.681332    5.807709    -37.410591    15.777999    -43.796940    -0.153692    -0.493814    0.505899    8.331701    -1.983323    -6.547855    -6.818489    -0.499663    6.997732    -1.767551    2.951943    0.000000    0.000000    0.000000    -2.331615    8.275258    2.728526    6.049823    -4.794658    2.713561    -1.232742    -2.102224    -8.578581    0.000000    0.000000    0.000000    
1.098474    87.284431    12.048264    -1.931828    -0.299073    0.499824    2.684602    1.903863    1.667354    -8.721362    -9.420065    0.992074    15.636968    17.355959    -8.259203    -7.381618    4.245427    -9.208318    10.755624    15.463977    -14.897069    -59.356888    51.883480    -17.197197    0.260410    -10.953060    -20.818697    3.602633    -10.603126    9.771463    -41.033417    -29.750858    -12.489534    -4.295851    -6.361188    52.664108    5.858824    -37.553993    15.809102    -43.804485    0.001942    -0.376676    0.506593    8.326687    -1.988376    -6.548924    -6.813336    -0.509613    7.001178    -1.763364    2.958259    0.000000    0.000000    0.000000    -2.329801    8.276810    2.733698    6.042837    -4.804621    2.690098    -1.227293    -2.092286    -8.566089    0.000000    0.000000    0.000000    
1.096902    87.285332    12.045954    -1.932438    -0.300549    0.507439    2.687062    1.905580    1.667388    -8.722377    -9.418853    0.992201    15.610269    17.342274    -8.253459    -7.350598    4.260723    -9.200445    10.756775    15.457454    -14.896289    -59.362762    51.894650    -17.189892    0.261762    -10.957237    -20.827375    3.604023    -10.607101    9.765631    -41.027023    -29.740210    -12.487346    -4.309960    -6.365216    52.669106    5.894357    -37.653336    15.830784    -43.805939    0.035378    -0.345926    0.508604    8.321898    -1.993125    -6.549449    -6.806778    -0.514542    6.998671    -1.762103    2.966408    0.000000    0.000000    0.000000    -2.324993    8.277479    2.722596    6.039032    -4.802880    2.679838    -1.220762    -2.092875    -8.553425    0.000000    0.000000    0.000000    
1.094342    87.286339    12.042865    -1.932356    -0.297096    0.516008    2.685350    1.901399    1.668629    -8.724302    -9.415401    0.993351    15.608776    17.341387    -8.255453    -7.340657    4.255133    -9.201973    10.761721    15.460408    -14.899687    -59.352692    51.903599    -17.202240    0.264806    -10.955658    -20.830950    3.609356    -10.604279    9.772757    -41.023994    -29.729301    -12.490078    -4.311156    -6.366430    52.675552    5.923105    -37.733517    15.848363    -43.802502    0.046420    -0.323493    0.512710    8.311902    -1.996569    -6.550450    -6.797267    -0.526461    6.998375    -1.764858    2.966700    0.000000    0.000000    0.000000    -2.326056    8.270527    2.736695    6.046558    -4.799446    2.681154    -1.221437    -2.090535    -8.580246    0.000000    0.000000    0.000000    
1.093145    87.286057    12.041002    -1.931157    -0.298819    0.523951    2.686598    1.899595    1.668422    -8.724520    -9.408658    0.993627    15.586879    17.329710    -8.249684    -7.313531    4.269123    -9.194219    10.762017    15.450032    -14.904263    -59.358616    51.920277    -17.195679    0.266720    -10.959708    -20.828396    3.601974    -10.608864    9.764895    -41.031509    -29.726332    -12.489114    -4.302416    -6.364845    52.678745    5.940193    -37.781086    15.858825    -43.832516    0.080291    -0.323471    0.515336    8.308434    -2.003962    -6.557497    -6.791886    -0.520539    7.006509    -1.766563    2.962087    0.000000    0.000000    0.000000    -2.322814    8.273982    2.721180    6.040891    -4.802691    2.683220    -1.219232    -2.088037    -8.574733    0.000000    0.000000    0.000000    
1.090544    87.285637    12.038342    -1.931665    -0.296990    0.532892    2.684582    1.894528    1.668460    -8.721704    -9.402251    0.994244    15.573110    17.321056    -8.250672    -7.299124    4.275225    -9.194773    10.758582    15.445352    -14.905005    -59.350903    51.927475    -17.200941    0.263681    -10.954907    -20.824173    3.592930    -10.605279    9.767513    -41.037186    -29.725082    -12.484952    -4.286676    -6.359547    52.667622    5.940193    -37.781086    15.858825    -43.825638    0.107585    -0.279432    0.520084    8.302056    -2.000991    -6.561160    -6.787154    -0.534500    7.065525    -1.781605    2.951016    0.000000    0.000000    0.000000    -2.320451    8.267637    2.696139    6.045189    -4.792696    2.710517    -1.227643    -2.093412    -8.585466    0.000000    0.000000    0.000000    
